<?xml version="1.0" encoding="UTF-8"?>
<svg xmlns="http://www.w3.org/2000/svg" xmlns:xlink="http://www.w3.org/1999/xlink" version="1.1" viewBox="0 0 1904.7 3630.7">
  <!-- Generator: Adobe Illustrator 29.2.1, SVG Export Plug-In . SVG Version: 2.1.0 Build 116)  -->
  <defs>
    <style>
      .st0, .st1, .st2, .st3, .st4, .st5, .st6 {
        fill: none;
      }

      .st7 {
        opacity: .7;
      }

      .st7, .st8, .st9, .st10, .st11, .st12, .st3, .st13, .st14, .st15, .st16, .st17, .st18, .st19 {
        isolation: isolate;
      }

      .st8, .st20 {
        mix-blend-mode: screen;
      }

      .st21 {
        fill: url(#linear-gradient2);
      }

      .st22 {
        fill: url(#linear-gradient1);
      }

      .st23 {
        fill: url(#linear-gradient9);
      }

      .st24 {
        fill: url(#linear-gradient3);
      }

      .st25 {
        fill: url(#linear-gradient6);
      }

      .st26 {
        fill: url(#linear-gradient8);
      }

      .st27 {
        fill: url(#linear-gradient7);
      }

      .st28 {
        fill: url(#linear-gradient5);
      }

      .st29 {
        fill: url(#linear-gradient4);
      }

      .st30 {
        fill: #5aa8f5;
      }

      .st31 {
        fill: #dcddde;
        font-family: IBMPlexMono-LightItalic, 'IBM Plex Mono';
        font-size: 23.1px;
        letter-spacing: 0em;
      }

      .st31, .st15 {
        font-weight: 300;
      }

      .st31, .st32 {
        font-style: italic;
      }

      .st33 {
        fill: url(#linear-gradient28);
      }

      .st34 {
        fill: url(#linear-gradient29);
      }

      .st35 {
        fill: url(#linear-gradient18);
      }

      .st36 {
        fill: url(#linear-gradient13);
      }

      .st37 {
        fill: url(#linear-gradient12);
      }

      .st38 {
        fill: url(#linear-gradient15);
      }

      .st39 {
        fill: url(#linear-gradient16);
      }

      .st40 {
        fill: url(#linear-gradient11);
      }

      .st41 {
        fill: url(#linear-gradient10);
      }

      .st42 {
        fill: url(#linear-gradient17);
      }

      .st43 {
        fill: url(#linear-gradient14);
      }

      .st44 {
        fill: url(#linear-gradient19);
      }

      .st45 {
        fill: url(#linear-gradient23);
      }

      .st46 {
        fill: url(#linear-gradient22);
      }

      .st47 {
        fill: url(#linear-gradient24);
      }

      .st48 {
        fill: url(#linear-gradient25);
      }

      .st49 {
        fill: url(#linear-gradient21);
      }

      .st50 {
        fill: url(#linear-gradient20);
      }

      .st51 {
        fill: url(#linear-gradient27);
      }

      .st52 {
        fill: url(#linear-gradient26);
      }

      .st53 {
        fill: #22b6dd;
        font-family: IBMPlexMono-Medium, 'IBM Plex Mono';
        font-size: 23.6px;
        letter-spacing: 0em;
      }

      .st53, .st9, .st12 {
        font-weight: 500;
      }

      .st54 {
        fill: #007cc4;
      }

      .st55 {
        fill: url(#linear-gradient);
      }

      .st9 {
        font-size: 37.4px;
      }

      .st9, .st12 {
        font-family: IBMPlexSans-Medium, 'IBM Plex Sans';
      }

      .st9, .st12, .st56, .st57, .st13, .st14, .st15, .st18, .st19 {
        fill: #fff;
      }

      .st1 {
        stroke: #0087cd;
        stroke-width: 2.7px;
      }

      .st1, .st58, .st2, .st3, .st4, .st59, .st5, .st6 {
        stroke-miterlimit: 10;
      }

      .st11 {
        fill: #a9b3c9;
        font-size: 17px;
      }

      .st11, .st13, .st14, .st16, .st17 {
        font-family: IBMPlexSans, 'IBM Plex Sans';
      }

      .st12 {
        font-size: 20px;
      }

      .st56 {
        font-family: MyriadPro-Semibold, 'Myriad Pro';
        font-size: 45.3px;
        font-weight: 600;
      }

      .st60 {
        mix-blend-mode: multiply;
      }

      .st61 {
        clip-path: url(#clippath-1);
      }

      .st58, .st4, .st59 {
        stroke: #fff;
      }

      .st58, .st59 {
        fill: #00bdf1;
      }

      .st62 {
        letter-spacing: 0em;
      }

      .st62, .st63 {
        fill: #ccecfc;
        font-family: MyriadPro-Regular, 'Myriad Pro';
        font-size: 34.6px;
      }

      .st2 {
        stroke: #cfedfc;
        stroke-width: .6px;
      }

      .st64, .st3 {
        mix-blend-mode: hard-light;
      }

      .st3 {
        stroke: #0d4ba0;
        stroke-width: 8.2px;
      }

      .st4 {
        stroke-width: .3px;
      }

      .st65 {
        fill: #080b18;
      }

      .st59, .st6 {
        stroke-width: .8px;
      }

      .st13 {
        font-size: 25px;
      }

      .st66 {
        fill: #8fb8ea;
      }

      .st67 {
        fill: #0f132f;
        opacity: .7;
      }

      .st68 {
        fill: #0d0000;
      }

      .st14 {
        font-size: 26.1px;
      }

      .st69 {
        mix-blend-mode: color-dodge;
      }

      .st15 {
        font-family: IBMPlexSans-Light, 'IBM Plex Sans';
        font-size: 61.6px;
      }

      .st5 {
        stroke: #a0dcf8;
        stroke-width: 1.2px;
      }

      .st70 {
        fill: #000009;
      }

      .st71 {
        fill: #0096db;
      }

      .st16 {
        fill: #cdd6e6;
        font-size: 14.6px;
      }

      .st72 {
        fill: #12151a;
      }

      .st73 {
        fill: #006fba;
      }

      .st17 {
        fill: #e8f2ff;
        font-size: 30px;
      }

      .st18 {
        font-size: 19.9px;
      }

      .st18, .st19 {
        font-family: IBMPlexSans-Bold, 'IBM Plex Sans';
        font-weight: 700;
      }

      .st74 {
        fill: #00020d;
      }

      .st32 {
        font-family: IBMPlexMono-Italic, 'IBM Plex Mono';
        font-size: 48.7px;
        letter-spacing: 0em;
      }

      .st75 {
        clip-path: url(#clippath);
      }

      .st19 {
        font-size: 24px;
      }

      .st76 {
        fill: #84d5f7;
      }

      .st77 {
        fill: #274e89;
        opacity: .1;
      }

      .st6 {
        stroke: #e4f5fd;
      }
    </style>
    <clipPath id="clippath">
      <rect class="st0" x=".2" y="2440.4" width="1904.4" height="911.1"/>
    </clipPath>
    <linearGradient id="linear-gradient" x1="1195.6" y1="1412.7" x2="1660.5" y2="1412.7" gradientTransform="translate(0 306)" gradientUnits="userSpaceOnUse">
      <stop offset="0" stop-color="#e4f5fd"/>
      <stop offset=".4" stop-color="#084ca1"/>
      <stop offset="1" stop-color="#00aeef"/>
    </linearGradient>
    <linearGradient id="linear-gradient1" x1="949.9" y1="1413.8" x2="1144.3" y2="1413.8" gradientTransform="translate(0 306)" gradientUnits="userSpaceOnUse">
      <stop offset="0" stop-color="#00020d"/>
      <stop offset=".3" stop-color="#05306a"/>
      <stop offset=".4" stop-color="#084ca1"/>
      <stop offset=".7" stop-color="#0076be"/>
      <stop offset="1" stop-color="#fff"/>
    </linearGradient>
    <linearGradient id="linear-gradient2" x1="1611.1" y1="1414.5" x2="1681.8" y2="1414.5" gradientTransform="translate(0 306)" gradientUnits="userSpaceOnUse">
      <stop offset="0" stop-color="#9fddf9"/>
      <stop offset=".3" stop-color="#4187c4"/>
      <stop offset=".5" stop-color="#034ea2"/>
      <stop offset="1" stop-color="#fff"/>
    </linearGradient>
    <linearGradient id="linear-gradient3" x1="1195.6" y1="1001.4" x2="1660.5" y2="1001.4" gradientTransform="translate(0 306)" gradientUnits="userSpaceOnUse">
      <stop offset="0" stop-color="#e4f5fd"/>
      <stop offset=".4" stop-color="#084ca1"/>
      <stop offset="1" stop-color="#00aeef"/>
    </linearGradient>
    <linearGradient id="linear-gradient4" x1="949.9" y1="1002.6" x2="1144.3" y2="1002.6" gradientTransform="translate(0 306)" gradientUnits="userSpaceOnUse">
      <stop offset="0" stop-color="#00020d"/>
      <stop offset=".3" stop-color="#05306a"/>
      <stop offset=".4" stop-color="#084ca1"/>
      <stop offset=".7" stop-color="#0076be"/>
      <stop offset="1" stop-color="#fff"/>
    </linearGradient>
    <linearGradient id="linear-gradient5" x1="1611.1" y1="1003.3" x2="1681.8" y2="1003.3" gradientTransform="translate(0 306)" gradientUnits="userSpaceOnUse">
      <stop offset="0" stop-color="#9fddf9"/>
      <stop offset=".3" stop-color="#4187c4"/>
      <stop offset=".5" stop-color="#034ea2"/>
      <stop offset="1" stop-color="#fff"/>
    </linearGradient>
    <linearGradient id="linear-gradient6" x1="1195.6" y1="1138.9" x2="1660.5" y2="1138.9" gradientTransform="translate(0 306)" gradientUnits="userSpaceOnUse">
      <stop offset="0" stop-color="#e4f5fd"/>
      <stop offset=".4" stop-color="#084ca1"/>
      <stop offset="1" stop-color="#00aeef"/>
    </linearGradient>
    <linearGradient id="linear-gradient7" x1="949.9" y1="1140" x2="1144.3" y2="1140" gradientTransform="translate(0 306)" gradientUnits="userSpaceOnUse">
      <stop offset="0" stop-color="#00020d"/>
      <stop offset=".3" stop-color="#05306a"/>
      <stop offset=".4" stop-color="#084ca1"/>
      <stop offset=".7" stop-color="#0076be"/>
      <stop offset="1" stop-color="#fff"/>
    </linearGradient>
    <linearGradient id="linear-gradient8" x1="1611.1" y1="1140.7" x2="1681.8" y2="1140.7" gradientTransform="translate(0 306)" gradientUnits="userSpaceOnUse">
      <stop offset="0" stop-color="#9fddf9"/>
      <stop offset=".3" stop-color="#4187c4"/>
      <stop offset=".5" stop-color="#034ea2"/>
      <stop offset="1" stop-color="#fff"/>
    </linearGradient>
    <linearGradient id="linear-gradient9" x1="1195.6" y1="1275.9" x2="1660.5" y2="1275.9" gradientTransform="translate(0 306)" gradientUnits="userSpaceOnUse">
      <stop offset="0" stop-color="#e4f5fd"/>
      <stop offset=".4" stop-color="#084ca1"/>
      <stop offset="1" stop-color="#00aeef"/>
    </linearGradient>
    <linearGradient id="linear-gradient10" x1="949.9" y1="1277.1" x2="1144.3" y2="1277.1" gradientTransform="translate(0 306)" gradientUnits="userSpaceOnUse">
      <stop offset="0" stop-color="#00020d"/>
      <stop offset=".3" stop-color="#05306a"/>
      <stop offset=".4" stop-color="#084ca1"/>
      <stop offset=".7" stop-color="#0076be"/>
      <stop offset="1" stop-color="#fff"/>
    </linearGradient>
    <linearGradient id="linear-gradient11" x1="1611.1" y1="1277.8" x2="1681.8" y2="1277.8" gradientTransform="translate(0 306)" gradientUnits="userSpaceOnUse">
      <stop offset="0" stop-color="#9fddf9"/>
      <stop offset=".3" stop-color="#4187c4"/>
      <stop offset=".5" stop-color="#034ea2"/>
      <stop offset="1" stop-color="#fff"/>
    </linearGradient>
    <linearGradient id="linear-gradient12" x1="1933.5" y1="679" x2="1323.7" y2="1015.5" gradientTransform="translate(0 306)" gradientUnits="userSpaceOnUse">
      <stop offset="0" stop-color="#034ea2"/>
      <stop offset=".3" stop-color="#002f64"/>
      <stop offset=".6" stop-color="#0072bc"/>
    </linearGradient>
    <linearGradient id="linear-gradient13" x1="1926.8" y1="-385.2" x2="1317" y2="-48.7" xlink:href="#linear-gradient12"/>
    <clipPath id="clippath-1">
      <path class="st0" d="M73.2,65c-24.7,0-44.8,20.1-44.8,44.8v693.2c0,24.7,20.1,44.8,44.8,44.8h961V65H73.2Z"/>
    </clipPath>
    <linearGradient id="linear-gradient14" x1="403.3" y1="747.7" x2="404.3" y2="746.7" gradientTransform="translate(-151076 92001) scale(375 -120)" gradientUnits="userSpaceOnUse">
      <stop offset="0" stop-color="#161f3c"/>
      <stop offset="1" stop-color="#0a0e1c"/>
    </linearGradient>
    <linearGradient id="linear-gradient15" x1="403.3" y1="747.7" x2="404.3" y2="746.7" gradientTransform="translate(-150681 92001) scale(375 -120)" xlink:href="#linear-gradient14"/>
    <linearGradient id="linear-gradient16" x1="403.3" y1="747.7" x2="404.3" y2="746.7" gradientTransform="translate(-150286 92001) scale(375 -120)" xlink:href="#linear-gradient14"/>
    <linearGradient id="linear-gradient17" x1="403.3" y1="747.7" x2="404.3" y2="746.7" gradientTransform="translate(-149891 92001) scale(375 -120)" xlink:href="#linear-gradient14"/>
    <linearGradient id="linear-gradient18" x1="403.3" y1="747.7" x2="404.3" y2="746.7" gradientTransform="translate(-151076 92141) scale(375 -120)" xlink:href="#linear-gradient14"/>
    <linearGradient id="linear-gradient19" x1="403.3" y1="747.7" x2="404.3" y2="746.7" gradientTransform="translate(-150681 92141) scale(375 -120)" xlink:href="#linear-gradient14"/>
    <linearGradient id="linear-gradient20" x1="403.3" y1="747.7" x2="404.3" y2="746.7" gradientTransform="translate(-150286 92141) scale(375 -120)" xlink:href="#linear-gradient14"/>
    <linearGradient id="linear-gradient21" x1="403.3" y1="747.7" x2="404.3" y2="746.7" gradientTransform="translate(-149891 92141) scale(375 -120)" xlink:href="#linear-gradient14"/>
    <linearGradient id="linear-gradient22" x1="295.5" y1="2260.1" x2="454.8" y2="2438" gradientTransform="matrix(1,0,0,1,0,0)" xlink:href="#linear-gradient12"/>
    <linearGradient id="linear-gradient23" x1="571.1" y1="2336.7" x2="947.1" y2="2336.7" gradientTransform="matrix(1,0,0,1,0,0)" xlink:href="#linear-gradient12"/>
    <linearGradient id="linear-gradient24" x1="966.1" y1="2336.7" x2="1342.1" y2="2336.7" gradientTransform="matrix(1,0,0,1,0,0)" xlink:href="#linear-gradient12"/>
    <linearGradient id="linear-gradient25" x1="1361.1" y1="2336.7" x2="1737.1" y2="2336.7" gradientTransform="matrix(1,0,0,1,0,0)" xlink:href="#linear-gradient12"/>
    <linearGradient id="linear-gradient26" x1="176.1" y1="2476.7" x2="552.1" y2="2476.7" gradientTransform="matrix(1,0,0,1,0,0)" xlink:href="#linear-gradient12"/>
    <linearGradient id="linear-gradient27" x1="571.1" y1="2476.7" x2="947.1" y2="2476.7" gradientTransform="matrix(1,0,0,1,0,0)" xlink:href="#linear-gradient12"/>
    <linearGradient id="linear-gradient28" x1="966.1" y1="2476.7" x2="1342.1" y2="2476.7" gradientTransform="matrix(1,0,0,1,0,0)" xlink:href="#linear-gradient12"/>
    <linearGradient id="linear-gradient29" x1="1361.1" y1="2476.7" x2="1737.1" y2="2476.7" gradientTransform="matrix(1,0,0,1,0,0)" xlink:href="#linear-gradient12"/>
    <image id="image1" width="1477" height="315" xlink:href="svg/svg 링크/rnd-01-amphexon-40.png"/>
    <image id="image2" width="636" height="303" xlink:href="svg/svg 링크/rnd-01-amphexon-41.png"/>
  </defs>
  <g class="st10">
    <g id="Layer_1">
      <g class="st75">
        <image width="3840" height="1632" transform="translate(-106.6 2460.8) scale(.6)" xlink:href="홈페이지/HTML(마케팅)/소스/KakaoTalk_Photo_2026-09-04-12-12-18 004.png"/>
      </g>
      <rect class="st70" x=".2" y="2138.9" width="1904.4" height="376.1"/>
      <g id="Layer_2">
        <rect class="st74" y="1113" width="1904.7" height="817"/>
      </g>
      <g class="st64">
        <image class="st10" width="1299" height="1298" transform="translate(245.9 1198.5) scale(.5)" xlink:href="svg/svg 링크/rnd-01-amphexon-1.png"/>
      </g>
      <image class="st10" width="1911" height="1912" transform="translate(93.9 1042.5) scale(.5)" xlink:href="svg/svg 링크/rnd-01-amphexon-2.png"/>
      <image class="st10" width="1411" height="1412" transform="translate(209.4 1160.2) scale(.5)" xlink:href="svg/svg 링크/rnd-01-amphexon-3.png"/>
      <g class="st64">
        <image class="st10" width="1804" height="1805" transform="translate(108.9 1061.6) scale(.5)" xlink:href="svg/svg 링크/rnd-01-amphexon-4.png"/>
      </g>
      <circle class="st5" cx="559.2" cy="1512.7" r="300.7"/>
      <g class="st64">
        <image class="st10" width="1252" height="1252" transform="translate(258.6 1212.4) scale(.5)" xlink:href="svg/svg 링크/rnd-01-amphexon-6.png"/>
      </g>
      <g class="st64">
        <image class="st10" width="965" height="967" transform="translate(327.5 1280.8) scale(.5)" xlink:href="svg/svg 링크/rnd-01-amphexon-7.png"/>
      </g>
      <image class="st8" width="492" height="491" transform="translate(348.1 1302.1) scale(.9)" xlink:href="svg/svg 링크/rnd-01-amphexon-8.png"/>
      <g class="st64">
        <image class="st10" width="834" height="834" transform="translate(357.4 1314.5) scale(.5)" xlink:href="svg/svg 링크/rnd-01-amphexon-9.png"/>
      </g>
      <image class="st10" width="782" height="784" transform="translate(371.5 1324.4) scale(.5)" xlink:href="svg/svg 링크/rnd-01-amphexon-10.png"/>
      <g class="st69">
        <image class="st10" width="955" height="954" transform="translate(329 1284.4) scale(.5)" xlink:href="svg/svg 링크/rnd-01-amphexon-11.png"/>
      </g>
      <image class="st10" width="795" height="796" transform="translate(363.3 1315.7) scale(.5)" xlink:href="svg/svg 링크/rnd-01-amphexon-12.png"/>
      <g class="st64">
        <image class="st10" width="583" height="583" transform="translate(361.6 1309.8) scale(.7)" xlink:href="svg/svg 링크/rnd-01-amphexon-13.png"/>
      </g>
      <circle class="st68" cx="559.1" cy="1512.7" r="141.5"/>
      <g class="st64">
        <image class="st10" width="1260" height="1260" transform="translate(247.8 1206.9) scale(.5)" xlink:href="svg/svg 링크/rnd-01-amphexon-14.png"/>
      </g>
      <image class="st10" width="979" height="977" transform="translate(324.2 1277.4) scale(.5)" xlink:href="svg/svg 링크/rnd-01-amphexon-15.png"/>
      <g class="st10">
        <g class="st10">
          <g class="st10">
            <text class="st9" transform="translate(448.1 1509.6)"><tspan x="0" y="0">AMPHE</tspan></text>
          </g>
          <g class="st10">
            <text class="st9" transform="translate(575.7 1509.6)"><tspan x="0" y="0">X</tspan></text>
          </g>
          <g class="st10">
            <text class="st9" transform="translate(598.8 1509.6)"><tspan x="0" y="0">ON</tspan></text>
          </g>
        </g>
        <g class="st10">
          <g class="st10">
            <text class="st12" transform="translate(654.2 1492.2)"><tspan x="0" y="0">TM</tspan></text>
          </g>
        </g>
      </g>
      <g class="st10">
        <g class="st10">
          <text class="st17" transform="translate(477.5 1549)"><tspan x="0" y="0">T</tspan></text>
        </g>
        <g class="st10">
          <text class="st17" transform="translate(492.7 1549)"><tspan x="0" y="0">echnolo</tspan></text>
        </g>
        <g class="st10">
          <text class="st17" transform="translate(600 1549)"><tspan x="0" y="0">g</tspan></text>
        </g>
        <g class="st10">
          <text class="st17" transform="translate(616 1549)"><tspan x="0" y="0">y</tspan></text>
        </g>
      </g>
      <circle class="st3" cx="558.7" cy="1512.4" r="143.1"/>
      <circle class="st1" cx="559.1" cy="1512.7" r="223.2"/>
      <g>
        <g>
          <g>
            <g class="st10">
              <image class="st10" width="473" height="208" transform="translate(1380.5 1258.9) scale(.5)" xlink:href="svg/svg 링크/rnd-01-amphexon-16.png"/>
            </g>
            <g class="st10">
              <g class="st10">
                <text class="st14" transform="translate(1422 1317.1)"><tspan x="0" y="0">Amphiphasic</tspan></text>
              </g>
            </g>
          </g>
          <g>
            <image class="st10" width="516" height="304" transform="translate(1182.8 1235.9) scale(.5)" xlink:href="svg/svg 링크/rnd-01-amphexon-17.png"/>
            <g class="st10">
              <g class="st10">
                <text class="st15" transform="translate(1227.4 1329.1)"><tspan x="0" y="0">AMPH</tspan></text>
              </g>
            </g>
          </g>
        </g>
        <g>
          <g>
            <image class="st10" width="239" height="302" transform="translate(1187.7 1371.8) scale(.5)" xlink:href="svg/svg 링크/rnd-01-amphexon-18.png"/>
            <g class="st10">
              <g class="st10">
                <text class="st15" transform="translate(1227.4 1464.6)"><tspan x="0" y="0">E</tspan></text>
              </g>
            </g>
          </g>
          <g>
            <image class="st10" width="580" height="215" transform="translate(1255.5 1394.6) scale(.5)" xlink:href="svg/svg 링크/rnd-01-amphexon-19.png"/>
            <g class="st10">
              <g class="st10">
                <text class="st13" transform="translate(1297.5 1454.6)"><tspan x="0" y="0">Ela</tspan></text>
              </g>
              <g class="st10">
                <text class="st13" transform="translate(1332.3 1454.6)"><tspan x="0" y="0">s</tspan></text>
              </g>
              <g class="st10">
                <text class="st13" transform="translate(1344.3 1454.6)"><tspan x="0" y="0">tic + Cohesi</tspan></text>
              </g>
              <g class="st10">
                <text class="st13" transform="translate(1474.8 1454.6)"><tspan x="0" y="0">v</tspan></text>
              </g>
              <g class="st10">
                <text class="st13" transform="translate(1486.9 1454.6)"><tspan x="0" y="0">e</tspan></text>
              </g>
            </g>
          </g>
        </g>
        <g>
          <g>
            <image class="st10" width="241" height="305" transform="translate(1186.5 1506.4) scale(.5)" xlink:href="svg/svg 링크/rnd-01-amphexon-20.png"/>
            <g class="st10">
              <g class="st10">
                <text class="st15" transform="translate(1227.4 1601.8)"><tspan x="0" y="0">X</tspan></text>
              </g>
            </g>
          </g>
          <g>
            <image class="st10" width="450" height="213" transform="translate(1262.1 1529.7) scale(.5)" xlink:href="svg/svg 링크/rnd-01-amphexon-21.png"/>
            <g class="st10">
              <g class="st10">
                <text class="st13" transform="translate(1301.1 1588.8)"><tspan x="0" y="0">C</tspan></text>
              </g>
              <g class="st10">
                <text class="st13" transform="translate(1316.6 1588.8)"><tspan x="0" y="0">r</tspan></text>
              </g>
              <g class="st10">
                <text class="st13" transform="translate(1325.7 1588.8)"><tspan x="0" y="0">o</tspan></text>
              </g>
              <g class="st10">
                <text class="st13" transform="translate(1339.7 1588.8)"><tspan x="0" y="0">s</tspan></text>
              </g>
              <g class="st10">
                <text class="st13" transform="translate(1351.8 1588.8)"><tspan x="0" y="0">s</tspan></text>
              </g>
              <g class="st10">
                <text class="st13" transform="translate(1363.7 1588.8)"><tspan x="0" y="0">-lin</tspan></text>
              </g>
              <g class="st10">
                <text class="st13" transform="translate(1401 1588.8)"><tspan x="0" y="0">k</tspan></text>
              </g>
              <g class="st10">
                <text class="st13" transform="translate(1413.8 1588.8)"><tspan x="0" y="0">ed</tspan></text>
              </g>
            </g>
          </g>
        </g>
        <g>
          <g>
            <image class="st10" width="371" height="302" transform="translate(1184 1648.8) scale(.5)" xlink:href="svg/svg 링크/rnd-01-amphexon-22.png"/>
            <g class="st10">
              <g class="st10">
                <text class="st15" transform="translate(1227.5 1741.4) scale(1.1 1)"><tspan x="0" y="0">ON</tspan></text>
              </g>
            </g>
          </g>
          <g>
            <image class="st10" width="331" height="214" transform="translate(1317.6 1668.3) scale(.5)" xlink:href="svg/svg 링크/rnd-01-amphexon-23.png"/>
            <g class="st10">
              <g class="st10">
                <text class="st13" transform="translate(1357.3 1727.2)"><tspan x="0" y="0">OREON</tspan></text>
              </g>
            </g>
          </g>
        </g>
        <g>
          <g>
            <image class="st10" width="1094" height="348" transform="translate(1122.9 1633.2) scale(.5 .5)" xlink:href="svg/svg 링크/rnd-01-amphexon-24.png"/>
            <g>
              <path class="st55" d="M1564.8,1765.9h-359.7c-25.7,0-46.5-20.9-46.5-46.5v-1.4c0-25.7,20.9-46.5,46.5-46.5h359.7c25.7,0,46.5,20.9,46.5,46.5v1.4c0,25.7-20.9,46.5-46.5,46.5h0ZM1205.1,1672.3c-25.1,0-45.6,20.5-45.6,45.6v1.4c0,25.1,20.4,45.6,45.6,45.6h359.7c25.1,0,45.6-20.5,45.6-45.6v-1.4c0-25.1-20.4-45.6-45.6-45.6h-359.7Z"/>
              <rect class="st22" x="944.7" y="1719.3" width="209.9" height="1"/>
              <image class="st10" width="205" height="208" transform="translate(1110.4 1668.7) scale(.5)" xlink:href="svg/svg 링크/rnd-01-amphexon-25.png"/>
              <circle class="st58" cx="1158.9" cy="1718.4" r="6.5"/>
            </g>
          </g>
          <rect class="st21" x="1611.1" y="1720" width="70.7" height="1"/>
          <g>
            <image class="st10" width="284" height="152" transform="translate(1574.8 1684.4) scale(.5)" xlink:href="svg/svg 링크/rnd-01-amphexon-26.png"/>
            <image id="image" class="st10" width="193" height="195" transform="translate(1632.6 1674.9) scale(.5)" xlink:href="svg/svg 링크/rnd-01-amphexon-27.png"/>
            <circle class="st59" cx="1678.3" cy="1721.5" r="5.1"/>
          </g>
        </g>
        <line class="st6" x1="1678" y1="1308.7" x2="1678" y2="1719.8"/>
        <g>
          <g>
            <image class="st10" width="1094" height="349" transform="translate(1122.9 1221.6) scale(.5 .5)" xlink:href="svg/svg 링크/rnd-01-amphexon-28.png"/>
            <g>
              <path class="st24" d="M1564.8,1354.6h-359.7c-25.7,0-46.5-20.9-46.5-46.5v-1.4c0-25.7,20.9-46.5,46.5-46.5h359.7c25.7,0,46.5,20.9,46.5,46.5v1.4c0,25.7-20.9,46.5-46.5,46.5ZM1205.1,1261.1c-25.1,0-45.6,20.4-45.6,45.6v1.4c0,25.1,20.4,45.6,45.6,45.6h359.7c25.1,0,45.6-20.5,45.6-45.6v-1.4c0-25.1-20.4-45.6-45.6-45.6h-359.7Z"/>
              <rect class="st29" x="944.7" y="1308.1" width="209.9" height="1"/>
              <image class="st10" width="205" height="206" transform="translate(1110 1257.4) scale(.5)" xlink:href="svg/svg 링크/rnd-01-amphexon-29.png"/>
              <circle class="st58" cx="1158.9" cy="1307.1" r="6.5"/>
            </g>
          </g>
          <rect class="st28" x="1611.1" y="1308.8" width="70.7" height="1"/>
          <g>
            <image class="st10" width="284" height="154" transform="translate(1574.8 1272.6) scale(.5)" xlink:href="svg/svg 링크/rnd-01-amphexon-30.png"/>
            <image class="st10" width="193" height="195" transform="translate(1632.6 1263.5) scale(.5)" xlink:href="svg/svg 링크/rnd-01-amphexon-31.png"/>
            <circle class="st59" cx="1678.3" cy="1310.2" r="5.1"/>
          </g>
        </g>
        <g>
          <g>
            <image class="st10" width="1094" height="345" transform="translate(1122.7 1360.1) scale(.5 .5)" xlink:href="svg/svg 링크/rnd-01-amphexon-32.png"/>
            <g>
              <path class="st25" d="M1564.8,1492.1h-359.7c-25.7,0-46.5-20.9-46.5-46.5v-1.4c0-25.7,20.9-46.5,46.5-46.5h359.7c25.7,0,46.5,20.9,46.5,46.5v1.4c0,25.7-20.9,46.5-46.5,46.5ZM1205.1,1398.6c-25.1,0-45.6,20.5-45.6,45.6v1.4c0,25.1,20.4,45.6,45.6,45.6h359.7c25.1,0,45.6-20.5,45.6-45.6v-1.4c0-25.1-20.4-45.6-45.6-45.6h-359.7Z"/>
              <rect class="st27" x="944.7" y="1445.5" width="209.9" height="1"/>
              <image class="st10" width="205" height="205" transform="translate(1110 1395.2) scale(.5)" xlink:href="svg/svg 링크/rnd-01-amphexon-33.png"/>
              <circle class="st58" cx="1158.9" cy="1444.6" r="6.5"/>
            </g>
          </g>
          <rect class="st26" x="1611.1" y="1446.2" width="70.7" height="1"/>
          <g>
            <image class="st10" width="284" height="152" transform="translate(1574.6 1410.2) scale(.5)" xlink:href="svg/svg 링크/rnd-01-amphexon-34.png"/>
            <image id="image1" class="st10" width="193" height="195" transform="translate(1632.6 1400.8) scale(.5)" xlink:href="svg/svg 링크/rnd-01-amphexon-35.png"/>
            <circle class="st59" cx="1678.3" cy="1447.7" r="5.1"/>
          </g>
        </g>
        <g>
          <g>
            <image class="st10" width="1094" height="348" transform="translate(1122.9 1496.4) scale(.5 .5)" xlink:href="svg/svg 링크/rnd-01-amphexon-36.png"/>
            <g>
              <path class="st23" d="M1564.8,1629.1h-359.7c-25.7,0-46.5-20.9-46.5-46.5v-1.4c0-25.7,20.9-46.5,46.5-46.5h359.7c25.7,0,46.5,20.9,46.5,46.5v1.4c0,25.7-20.9,46.5-46.5,46.5ZM1205.1,1535.6c-25.1,0-45.6,20.5-45.6,45.6v1.4c0,25.1,20.4,45.6,45.6,45.6h359.7c25.1,0,45.6-20.5,45.6-45.6v-1.4c0-25.1-20.4-45.6-45.6-45.6h-359.7Z"/>
              <rect class="st41" x="944.7" y="1582.6" width="209.9" height="1"/>
              <image class="st10" width="205" height="208" transform="translate(1110.4 1531.9) scale(.5)" xlink:href="svg/svg 링크/rnd-01-amphexon-37.png"/>
              <circle class="st58" cx="1158.9" cy="1581.6" r="6.5"/>
            </g>
          </g>
          <rect class="st40" x="1611.1" y="1583.3" width="70.7" height="1"/>
          <g>
            <image class="st10" width="284" height="153" transform="translate(1574.8 1547.4) scale(.5)" xlink:href="svg/svg 링크/rnd-01-amphexon-38.png"/>
            <image class="st10" width="194" height="193" transform="translate(1632.2 1538.3) scale(.5)" xlink:href="svg/svg 링크/rnd-01-amphexon-39.png"/>
            <circle class="st59" cx="1678.3" cy="1584.7" r="5.1"/>
          </g>
        </g>
      </g>
      <path class="st37" d="M1844.8,1913H80.9c-25.2,0-45.8-20.5-45.8-45.8v-693.2c0-25.2,20.5-45.8,45.8-45.8h1763.9c25.2,0,45.8,20.5,45.8,45.8v693.2c0,25.2-20.5,45.8-45.8,45.8h0ZM80.9,1129.1c-24.7,0-44.8,20.1-44.8,44.8v693.2c0,24.7,20.1,44.8,44.8,44.8h1763.9c24.7,0,44.8-20.1,44.8-44.8v-693.2c0-24.7-20.1-44.8-44.8-44.8H80.9Z"/>
      <g class="st64">
        <use class="st10" transform="translate(663.7 1051.8) scale(.5)" xlink:href="#image1"/>
      </g>
      <use class="st10" transform="translate(810.6 1055.6) scale(.5)" xlink:href="#image2"/>
      <g class="st60">
        <image class="st10" width="1404" height="1405" transform="translate(210.6 1163.8) scale(.5)" xlink:href="svg/svg 링크/rnd-01-amphexon-5.png"/>
      </g>
      <g>
        <rect class="st72" x=".6" y="0" width="1904.1" height="919.8"/>
        <path class="st36" d="M1838.1,848.9H74.2c-25.2,0-45.8-20.5-45.8-45.8V109.9c0-25.2,20.5-45.8,45.8-45.8h1763.9c25.2,0,45.8,20.5,45.8,45.8v693.2c0,25.2-20.5,45.8-45.8,45.8h0ZM74.2,65c-24.7,0-44.8,20.1-44.8,44.8v693.2c0,24.7,20.1,44.8,44.8,44.8h1763.9c24.7,0,44.8-20.1,44.8-44.8V109.8c0-24.7-20.1-44.8-44.8-44.8H74.2Z"/>
        <g class="st61">
          <image width="921" height="1536" transform="translate(21.9 -323.4) scale(1)" xlink:href="홈페이지/HTML(마케팅)/소스/rnd-image3.png"/>
        </g>
        <text class="st31" transform="translate(1011.5 643.8) scale(.9 1)"><tspan x="0" y="0">The cohesiveness of monophasic gels and the elasticity of biphasic gels.</tspan><tspan x="0" y="38.7">AMPHEXON™ Technology is precisely engineered so the strengths of these</tspan><tspan x="0" y="77.4">two distinct properties achieve balance within a single hydrogel.</tspan><tspan x="0" y="116.1">The result is a next‑generation hydrogel optimized for the human body,</tspan><tspan x="0" y="154.8">with smooth injectability and stable shape retention.</tspan></text>
        <text class="st32" transform="translate(1022.3 261.5) scale(1 1)"><tspan class="st76" x="0" y="0">Ela‑co</tspan><tspan class="st57" x="157.6" y="0" xml:space="preserve"> Amphiphasic Hydro Gel</tspan></text>
        <g class="st64">
          <use class="st10" transform="translate(1113.7 -13) scale(.4 .5)" xlink:href="#image1"/>
        </g>
        <use class="st7" transform="translate(1259.6 -8.6) scale(.5)" xlink:href="#image2"/>
        <text class="st53" transform="translate(1032.7 154.8)"><tspan x="0" y="0">THE BEST OPTIMIZED HYDRO GEL</tspan></text>
        <rect class="st77" x="1022.3" y="318.9" width="825.3" height="271.2" rx="15.1" ry="15.1"/>
        <g>
          <rect class="st54" x="1426.6" y="342.5" width=".7" height="223.8"/>
          <g>
            <path class="st54" d="M1832.5,591.1h-795.1c-8.8,0-15.9-7.1-15.9-15.9v-241c0-8.8,7.1-15.9,15.9-15.9h795.1c8.8,0,15.9,7.1,15.9,15.9v241c0,8.8-7.1,15.9-15.9,15.9h0ZM1037.3,318.5c-8.6,0-15.6,7-15.6,15.6v241c0,8.6,7,15.6,15.6,15.6h795.1c8.6,0,15.6-7,15.6-15.6v-241c0-8.6-7-15.6-15.6-15.6h-795.1Z"/>
            <path class="st54" d="M1832.5,591.6h-795.1c-9.1,0-16.4-7.4-16.4-16.4v-241c0-9.1,7.4-16.4,16.4-16.4h795.1c9.1,0,16.4,7.4,16.4,16.4v241c0,9.1-7.4,16.4-16.4,16.4ZM1037.3,319c-8.3,0-15.1,6.8-15.1,15.1v241c0,8.3,6.8,15.1,15.1,15.1h795.1c8.3,0,15.1-6.8,15.1-15.1v-241c0-8.3-6.8-15.1-15.1-15.1h-795.1Z"/>
          </g>
        </g>
        <text class="st62" transform="translate(1116.4 475.3) scale(1 1)"><tspan x="0" y="0">Elasticity from</tspan><tspan x="9.4" y="41.6">Biphasic gels</tspan></text>
        <g class="st20">
          <image width="262" height="221" transform="translate(1160.6 341.3) scale(.5)" xlink:href="rnd-01-amphexon-1.png"/>
        </g>
        <g class="st20">
          <image width="254" height="219" transform="translate(1578.7 341.3) scale(.5)" xlink:href="rnd-01-amphexon-2.png"/>
        </g>
        <text class="st63" transform="translate(1497.5 475.3) scale(1 1)"><tspan x="0" y="0">Cohesiveness from</tspan><tspan x="14.1" y="41.6">Monophasic gels</tspan></text>
        <text class="st56" transform="translate(1195.9 409.9)"><tspan x="0" y="0">Ela</tspan></text>
        <text class="st56" transform="translate(1615.8 409.9)"><tspan x="0" y="0">Co</tspan></text>
      </g>
      <rect class="st65" x="156.6" y="2262.7" width="1600" height="288"/>
      <rect class="st43" x="176.6" y="2276.7" width="375" height="120" rx="14" ry="14"/>
      <text class="st19" transform="translate(204.1 2327.2)"><tspan x="0" y="0">HA</tspan></text>
      <text class="st11" transform="translate(204.6 2364.8)"><tspan x="0" y="0">Hyaluronic Acid</tspan></text>
      <rect class="st38" x="571.6" y="2276.7" width="375" height="120" rx="14" ry="14"/>
      <text class="st19" transform="translate(599.6 2327.2)"><tspan x="0" y="0">PN</tspan></text>
      <text class="st11" transform="translate(599.6 2364.8)"><tspan x="0" y="0">Polynucleotide</tspan></text>
      <rect class="st39" x="966.6" y="2276.7" width="375" height="120" rx="14" ry="14"/>
      <text class="st19" transform="translate(994.6 2327.2)"><tspan x="0" y="0">PLLA</tspan></text>
      <text class="st11" transform="translate(994.6 2364.8)"><tspan x="0" y="0">Poly-L-Lactic Acid</tspan></text>
      <rect class="st42" x="1361.6" y="2276.7" width="375" height="120" rx="14" ry="14"/>
      <text class="st19" transform="translate(1389.6 2327.2)"><tspan x="0" y="0">CaHA</tspan></text>
      <text class="st11" transform="translate(1389.6 2364.8)"><tspan x="0" y="0">Calcium Hydroxyapatite</tspan></text>
      <rect class="st35" x="176.6" y="2416.7" width="375" height="120" rx="14" ry="14"/>
      <text class="st19" transform="translate(204.6 2467.2)"><tspan x="0" y="0">rH Collagen</tspan></text>
      <text class="st11" transform="translate(204.6 2504.8)"><tspan x="0" y="0">Recombinant Human Collagen</tspan></text>
      <rect class="st44" x="571.6" y="2416.7" width="375" height="120" rx="14" ry="14"/>
      <text class="st19" transform="translate(599.6 2467.2)"><tspan x="0" y="0">ECM</tspan></text>
      <text class="st11" transform="translate(599.6 2504.8)"><tspan x="0" y="0">Extracellular Matrix</tspan></text>
      <rect class="st50" x="966.6" y="2416.7" width="375" height="120" rx="14" ry="14"/>
      <text class="st19" transform="translate(994.6 2467.2)"><tspan x="0" y="0">NAD+</tspan></text>
      <text class="st11" transform="translate(994.6 2504.8)"><tspan x="0" y="0">Nicotinamide Adenine Dinucleotide</tspan></text>
      <rect class="st49" x="1361.6" y="2416.7" width="375" height="120" rx="14" ry="14"/>
      <text class="st19" transform="translate(1389.6 2467.2)"><tspan x="0" y="0">Exosome</tspan></text>
      <text class="st11" transform="translate(1389.6 2504.8)"><tspan x="0" y="0">Extracellular Vesicle</tspan></text>
      <g>
        <path class="st46" d="M537.6,2397.2H190.6c-8,0-14.5-6.5-14.5-14.5v-92c0-8,6.5-14.5,14.5-14.5h347c8,0,14.5,6.5,14.5,14.5v92c0,8-6.5,14.5-14.5,14.5ZM190.6,2277.2c-7.4,0-13.5,6.1-13.5,13.5v92c0,7.4,6.1,13.5,13.5,13.5h347c7.4,0,13.5-6.1,13.5-13.5v-92c0-7.4-6.1-13.5-13.5-13.5H190.6Z"/>
        <path class="st45" d="M932.6,2397.2h-347c-8,0-14.5-6.5-14.5-14.5v-92c0-8,6.5-14.5,14.5-14.5h347c8,0,14.5,6.5,14.5,14.5v92c0,8-6.5,14.5-14.5,14.5ZM585.6,2277.2c-7.4,0-13.5,6.1-13.5,13.5v92c0,7.4,6.1,13.5,13.5,13.5h347c7.4,0,13.5-6.1,13.5-13.5v-92c0-7.4-6.1-13.5-13.5-13.5h-347Z"/>
        <path class="st47" d="M1327.6,2397.2h-347c-8,0-14.5-6.5-14.5-14.5v-92c0-8,6.5-14.5,14.5-14.5h347c8,0,14.5,6.5,14.5,14.5v92c0,8-6.5,14.5-14.5,14.5ZM980.6,2277.2c-7.4,0-13.5,6.1-13.5,13.5v92c0,7.4,6.1,13.5,13.5,13.5h347c7.4,0,13.5-6.1,13.5-13.5v-92c0-7.4-6.1-13.5-13.5-13.5h-347Z"/>
        <path class="st48" d="M1722.6,2397.2h-347c-8,0-14.5-6.5-14.5-14.5v-92c0-8,6.5-14.5,14.5-14.5h347c8,0,14.5,6.5,14.5,14.5v92c0,8-6.5,14.5-14.5,14.5ZM1375.6,2277.2c-7.4,0-13.5,6.1-13.5,13.5v92c0,7.4,6.1,13.5,13.5,13.5h347c7.4,0,13.5-6.1,13.5-13.5v-92c0-7.4-6.1-13.5-13.5-13.5h-347Z"/>
        <path class="st52" d="M537.6,2537.2H190.6c-8,0-14.5-6.5-14.5-14.5v-92c0-8,6.5-14.5,14.5-14.5h347c8,0,14.5,6.5,14.5,14.5v92c0,8-6.5,14.5-14.5,14.5ZM190.6,2417.2c-7.4,0-13.5,6.1-13.5,13.5v92c0,7.4,6.1,13.5,13.5,13.5h347c7.4,0,13.5-6.1,13.5-13.5v-92c0-7.4-6.1-13.5-13.5-13.5H190.6Z"/>
        <path class="st51" d="M932.6,2537.2h-347c-8,0-14.5-6.5-14.5-14.5v-92c0-8,6.5-14.5,14.5-14.5h347c8,0,14.5,6.5,14.5,14.5v92c0,8-6.5,14.5-14.5,14.5ZM585.6,2417.2c-7.4,0-13.5,6.1-13.5,13.5v92c0,7.4,6.1,13.5,13.5,13.5h347c7.4,0,13.5-6.1,13.5-13.5v-92c0-7.4-6.1-13.5-13.5-13.5h-347Z"/>
        <path class="st33" d="M1327.6,2537.2h-347c-8,0-14.5-6.5-14.5-14.5v-92c0-8,6.5-14.5,14.5-14.5h347c8,0,14.5,6.5,14.5,14.5v92c0,8-6.5,14.5-14.5,14.5ZM980.6,2417.2c-7.4,0-13.5,6.1-13.5,13.5v92c0,7.4,6.1,13.5,13.5,13.5h347c7.4,0,13.5-6.1,13.5-13.5v-92c0-7.4-6.1-13.5-13.5-13.5h-347Z"/>
        <path class="st34" d="M1722.6,2537.2h-347c-8,0-14.5-6.5-14.5-14.5v-92c0-8,6.5-14.5,14.5-14.5h347c8,0,14.5,6.5,14.5,14.5v92c0,8-6.5,14.5-14.5,14.5ZM1375.6,2417.2c-7.4,0-13.5,6.1-13.5,13.5v92c0,7.4,6.1,13.5,13.5,13.5h347c7.4,0,13.5-6.1,13.5-13.5v-92c0-7.4-6.1-13.5-13.5-13.5h-347Z"/>
      </g>
      <rect class="st67" x="180.7" y="3157.4" width="501.9" height="154.3" rx="16.2" ry="16.2"/>
      <rect class="st2" x="180.7" y="3157.5" width="501.9" height="154.3" rx="16.2" ry="16.2"/>
      <circle class="st71" cx="207.7" cy="3184.8" r="3.2"/>
      <text class="st18" transform="translate(220.4 3192.5)"><tspan x="0" y="0">Peptide &amp; Amino</tspan></text>
      <line class="st4" x1="205.8" y1="3210.4" x2="661.7" y2="3210.4"/>
      <rect class="st67" x="707" y="3157.4" width="501.9" height="154.3" rx="16.2" ry="16.2"/>
      <rect class="st2" x="707" y="3157.5" width="501.9" height="154.3" rx="16.2" ry="16.2"/>
      <line class="st4" x1="732.1" y1="3210.4" x2="1188" y2="3210.4"/>
      <rect class="st67" x="1232.2" y="3157.4" width="501.9" height="154.3" rx="16.2" ry="16.2"/>
      <rect class="st2" x="1232.2" y="3157.5" width="501.9" height="154.3" rx="16.2" ry="16.2"/>
      <line class="st4" x1="1257.3" y1="3210.4" x2="1713.1" y2="3210.4"/>
      <circle class="st73" cx="207.9" cy="3232.3" r="2.4"/>
      <text class="st16" transform="translate(220.4 3237.5)"><tspan x="0" y="0">Peptide Complex</tspan></text>
      <circle class="st73" cx="207.9" cy="3257.4" r="2.4"/>
      <text class="st16" transform="translate(220.4 3262.6)"><tspan x="0" y="0">Amino Acid Complex</tspan></text>
      <circle class="st73" cx="207.9" cy="3282.5" r="2.4"/>
      <text class="st16" transform="translate(220.4 3287.7)"><tspan x="0" y="0">Succinic Acid</tspan></text>
      <circle class="st30" cx="732.8" cy="3186.3" r="3.7"/>
      <text class="st18" transform="translate(747.4 3192.5)"><tspan x="0" y="0">Brightening &amp; Antioxidant</tspan></text>
      <circle class="st66" cx="734.9" cy="3232.3" r="2.4"/>
      <text class="st16" transform="translate(747.4 3237.5)"><tspan x="0" y="0">Niacinamide</tspan></text>
      <circle class="st66" cx="734.9" cy="3257.4" r="2.4"/>
      <text class="st16" transform="translate(747.4 3262.6)"><tspan x="0" y="0">Glutathione</tspan></text>
      <circle class="st66" cx="734.9" cy="3282.5" r="2.4"/>
      <text class="st16" transform="translate(747.4 3287.7)"><tspan x="0" y="0">Vitamin C</tspan></text>
      <circle class="st30" cx="1259.7" cy="3186.3" r="3.7"/>
      <text class="st18" transform="translate(1274.4 3192.5)"><tspan x="0" y="0">Vitamins &amp; Enzymes</tspan></text>
      <circle class="st66" cx="1261.8" cy="3232.3" r="2.4"/>
      <text class="st16" transform="translate(1274.4 3237.5)"><tspan x="0" y="0">Vitamin B6</tspan></text>
      <circle class="st66" cx="1261.8" cy="3257.4" r="2.4"/>
      <text class="st16" transform="translate(1274.4 3262.6)"><tspan x="0" y="0">Bromelain</tspan></text>
      <circle class="st66" cx="1261.8" cy="3282.5" r="2.4"/>
      <text class="st16" transform="translate(1274.4 3287.7)"><tspan x="0" y="0">Lecithin</tspan></text>
    </g>
  </g>
</svg>