<svg width="305" height="151" viewBox="0 0 305 151" fill="none" xmlns="http://www.w3.org/2000/svg">
<rect width="305" height="151" rx="15" fill="url(#paint0_linear_2_247)"/>
<rect width="305" height="151" rx="15" fill="url(#paint1_linear_2_247)"/>
<path d="M57.7643 82H53.5173L51.7813 76.482H44.0933L42.3883 82H38.2343L45.4883 60.362H50.5723L57.7643 82ZM50.7893 72.979L47.9993 64.082H47.8443L45.0853 72.979H50.7893ZM67.0915 82.372C62.3175 82.372 59.6205 79.086 59.6205 73.878C59.6205 68.701 62.3175 65.446 67.0915 65.446C70.3465 65.446 72.4855 66.996 73.4465 69.538L70.1915 70.995C69.8195 69.631 68.7965 68.639 67.0915 68.639C64.8905 68.639 63.7745 70.189 63.7745 72.452V75.397C63.7745 77.66 64.8905 79.179 67.0915 79.179C68.9825 79.179 69.9125 78.094 70.5015 76.637L73.5395 78.094C72.4855 80.946 70.2225 82.372 67.0915 82.372ZM82.8337 82.372C78.0597 82.372 75.3627 79.086 75.3627 73.878C75.3627 68.701 78.0597 65.446 82.8337 65.446C86.0887 65.446 88.2277 66.996 89.1887 69.538L85.9337 70.995C85.5617 69.631 84.5387 68.639 82.8337 68.639C80.6327 68.639 79.5167 70.189 79.5167 72.452V75.397C79.5167 77.66 80.6327 79.179 82.8337 79.179C84.7247 79.179 85.6547 78.094 86.2437 76.637L89.2817 78.094C88.2277 80.946 85.9647 82.372 82.8337 82.372ZM98.7308 82.372C93.9568 82.372 91.1048 79.055 91.1048 73.878C91.1048 68.763 93.8638 65.446 98.6068 65.446C103.66 65.446 105.985 69.166 105.985 73.599V74.901H95.2278V75.304C95.2278 77.629 96.5608 79.21 99.1648 79.21C101.118 79.21 102.296 78.28 103.288 77.009L105.427 79.396C104.094 81.225 101.738 82.372 98.7308 82.372ZM98.6688 68.422C96.5918 68.422 95.2278 69.972 95.2278 72.204V72.452H101.862V72.173C101.862 69.941 100.715 68.422 98.6688 68.422ZM114.777 82.372C111.708 82.372 109.693 81.256 108.081 79.396L110.499 77.04C111.677 78.404 113.103 79.241 114.932 79.241C116.823 79.241 117.629 78.528 117.629 77.381C117.629 76.451 117.071 75.862 115.645 75.676L114.033 75.459C110.561 75.025 108.639 73.506 108.639 70.561C108.639 67.43 111.088 65.446 114.777 65.446C117.939 65.446 119.551 66.376 121.101 67.988L118.776 70.313C117.846 69.321 116.482 68.577 114.901 68.577C113.196 68.577 112.452 69.259 112.452 70.251C112.452 71.336 113.041 71.832 114.56 72.08L116.203 72.297C119.737 72.793 121.442 74.374 121.442 77.071C121.442 80.202 118.807 82.372 114.777 82.372ZM130.035 82.372C126.966 82.372 124.951 81.256 123.339 79.396L125.757 77.04C126.935 78.404 128.361 79.241 130.19 79.241C132.081 79.241 132.887 78.528 132.887 77.381C132.887 76.451 132.329 75.862 130.903 75.676L129.291 75.459C125.819 75.025 123.897 73.506 123.897 70.561C123.897 67.43 126.346 65.446 130.035 65.446C133.197 65.446 134.809 66.376 136.359 67.988L134.034 70.313C133.104 69.321 131.74 68.577 130.159 68.577C128.454 68.577 127.71 69.259 127.71 70.251C127.71 71.336 128.299 71.832 129.818 72.08L131.461 72.297C134.995 72.793 136.7 74.374 136.7 77.071C136.7 80.202 134.065 82.372 130.035 82.372ZM142.188 63.462C140.545 63.462 139.863 62.625 139.863 61.478V60.858C139.863 59.711 140.545 58.874 142.188 58.874C143.8 58.874 144.513 59.711 144.513 60.858V61.478C144.513 62.625 143.8 63.462 142.188 63.462ZM140.204 82V65.818H144.172V82H140.204ZM148.771 82V59.06H152.739V68.484H152.863C153.452 66.624 155.188 65.446 157.327 65.446C161.419 65.446 163.682 68.484 163.682 73.878C163.682 79.303 161.419 82.372 157.327 82.372C155.188 82.372 153.483 81.132 152.863 79.303H152.739V82H148.771ZM156.056 79.086C158.102 79.086 159.528 77.598 159.528 75.304V72.514C159.528 70.22 158.102 68.701 156.056 68.701C154.165 68.701 152.739 69.724 152.739 71.305V76.451C152.739 78.125 154.165 79.086 156.056 79.086ZM169.343 63.462C167.7 63.462 167.018 62.625 167.018 61.478V60.858C167.018 59.711 167.7 58.874 169.343 58.874C170.955 58.874 171.668 59.711 171.668 60.858V61.478C171.668 62.625 170.955 63.462 169.343 63.462ZM167.359 82V65.818H171.327V82H167.359ZM182.033 82H179.894C177.197 82 175.926 80.574 175.926 78.094V59.06H179.894V78.838H182.033V82ZM187.022 63.462C185.379 63.462 184.697 62.625 184.697 61.478V60.858C184.697 59.711 185.379 58.874 187.022 58.874C188.634 58.874 189.347 59.711 189.347 60.858V61.478C189.347 62.625 188.634 63.462 187.022 63.462ZM185.038 82V65.818H189.006V82H185.038ZM198.659 82C195.931 82 194.474 80.512 194.474 77.877V68.98H192.087V65.818H193.327C194.505 65.818 194.877 65.26 194.877 64.144V61.385H198.442V65.818H201.759V68.98H198.442V78.838H201.511V82H198.659ZM212.3 74.374L215.121 65.818H218.841L212.331 84.883C211.525 87.208 210.378 88.2 207.712 88.2H205.325V85.038H208.239L208.983 82.775L203.186 65.818H207.123L209.944 74.374L210.998 78.466H211.184L212.3 74.374Z" fill="white"/>
<path d="M43.6773 103.609H41.4993V110H40.0473V103.609H37.8693V102.322H43.6773V103.609ZM47.7053 110V109.043H47.6503C47.4523 109.615 46.9903 110.132 46.0443 110.132C44.8673 110.132 44.2073 109.318 44.2073 107.888V104.258H45.6153V107.745C45.6153 108.537 45.9123 108.966 46.5833 108.966C47.1443 108.966 47.7053 108.669 47.7053 108.053V104.258H49.1133V110H47.7053ZM52.1481 110H50.7401V104.258H52.1481V105.446H52.2031C52.3461 104.841 52.8081 104.258 53.7211 104.258H54.0291V105.589H53.5891C52.6431 105.589 52.1481 105.853 52.1481 106.48V110ZM56.4665 110H55.0585V104.258H56.4665V105.215H56.5215C56.7525 104.599 57.2365 104.126 58.1275 104.126C59.3045 104.126 59.9645 104.94 59.9645 106.37V110H58.5565V106.513C58.5565 105.699 58.2815 105.281 57.6105 105.281C57.0275 105.281 56.4665 105.589 56.4665 106.205V110ZM62.2293 103.422C61.6463 103.422 61.4043 103.125 61.4043 102.718V102.498C61.4043 102.091 61.6463 101.794 62.2293 101.794C62.8013 101.794 63.0543 102.091 63.0543 102.498V102.718C63.0543 103.125 62.8013 103.422 62.2293 103.422ZM61.5253 110V104.258H62.9333V110H61.5253ZM65.9733 110H64.5653V104.258H65.9733V105.215H66.0283C66.2593 104.599 66.7433 104.126 67.6343 104.126C68.8113 104.126 69.4713 104.94 69.4713 106.37V110H68.0633V106.513C68.0633 105.699 67.7883 105.281 67.1173 105.281C66.5343 105.281 65.9733 105.589 65.9733 106.205V110ZM76.2131 110.484C76.2131 111.683 75.3991 112.332 73.1991 112.332C71.2631 112.332 70.5261 111.826 70.5261 110.979C70.5261 110.341 70.9111 109.978 71.5491 109.879V109.758C71.0761 109.637 70.8121 109.263 70.8121 108.801C70.8121 108.207 71.3181 107.91 71.8681 107.789V107.745C71.1751 107.426 70.8231 106.832 70.8231 106.073C70.8231 104.907 71.6481 104.126 73.1991 104.126C73.5511 104.126 73.9141 104.17 74.2001 104.269V104.082C74.2001 103.521 74.4861 103.246 75.0141 103.246H75.9051V104.324H74.6841V104.478C75.2781 104.808 75.5751 105.369 75.5751 106.073C75.5751 107.228 74.7611 107.998 73.1991 107.998C72.8691 107.998 72.5721 107.965 72.3191 107.899C72.0991 107.998 71.9121 108.163 71.9121 108.416C71.9121 108.702 72.1541 108.845 72.6601 108.845H74.2001C75.6081 108.845 76.2131 109.45 76.2131 110.484ZM74.8931 110.649C74.8931 110.286 74.6291 110.066 73.9141 110.066H71.9561C71.7471 110.22 71.6591 110.429 71.6591 110.66C71.6591 111.1 71.9891 111.364 72.8691 111.364H73.5731C74.4861 111.364 74.8931 111.133 74.8931 110.649ZM73.1991 107.041C73.8701 107.041 74.2331 106.733 74.2331 106.161V105.974C74.2331 105.391 73.8701 105.094 73.1991 105.094C72.5281 105.094 72.1651 105.391 72.1651 105.974V106.161C72.1651 106.733 72.5281 107.041 73.1991 107.041ZM81.0449 110.132C79.8789 110.132 79.2189 109.461 79.2189 108.438C79.2189 107.261 80.1099 106.678 81.6719 106.678H82.6509V106.26C82.6509 105.622 82.3319 105.248 81.5839 105.248C80.9239 105.248 80.5499 105.578 80.2749 105.974L79.4389 105.226C79.8569 104.566 80.5279 104.126 81.6829 104.126C83.2339 104.126 84.0589 104.863 84.0589 106.172V108.878H84.6309V110H83.8499C83.2449 110 82.8709 109.604 82.7829 109.01H82.7169C82.5299 109.747 81.9029 110.132 81.0449 110.132ZM81.5179 109.109C82.1449 109.109 82.6509 108.823 82.6509 108.284V107.525H81.7489C81.0119 107.525 80.6489 107.778 80.6489 108.229V108.416C80.6489 108.878 80.9679 109.109 81.5179 109.109ZM89.3344 110V109.043H89.2794C89.0704 109.692 88.4544 110.132 87.6954 110.132C86.2544 110.132 85.4514 109.043 85.4514 107.118C85.4514 105.204 86.2544 104.126 87.6954 104.126C88.4544 104.126 89.0814 104.544 89.2794 105.204H89.3344V101.86H90.7424V110H89.3344ZM88.1464 108.966C88.8174 108.966 89.3344 108.625 89.3344 108.031V106.205C89.3344 105.644 88.8174 105.281 88.1464 105.281C87.4204 105.281 86.9254 105.82 86.9254 106.634V107.624C86.9254 108.438 87.4204 108.966 88.1464 108.966ZM95.2701 110H93.5981L91.6841 104.258H93.0701L93.8731 106.733L94.4341 108.779H94.5111L95.0721 106.733L95.8531 104.258H97.1951L95.2701 110ZM99.457 110.132C98.291 110.132 97.631 109.461 97.631 108.438C97.631 107.261 98.522 106.678 100.084 106.678H101.063V106.26C101.063 105.622 100.744 105.248 99.996 105.248C99.336 105.248 98.962 105.578 98.687 105.974L97.851 105.226C98.269 104.566 98.94 104.126 100.095 104.126C101.646 104.126 102.471 104.863 102.471 106.172V108.878H103.043V110H102.262C101.657 110 101.283 109.604 101.195 109.01H101.129C100.942 109.747 100.315 110.132 99.457 110.132ZM99.93 109.109C100.557 109.109 101.063 108.823 101.063 108.284V107.525H100.161C99.424 107.525 99.061 107.778 99.061 108.229V108.416C99.061 108.878 99.38 109.109 99.93 109.109ZM105.59 110H104.182V104.258H105.59V105.215H105.645C105.876 104.599 106.36 104.126 107.251 104.126C108.428 104.126 109.089 104.94 109.089 106.37V110H107.68V106.513C107.68 105.699 107.405 105.281 106.735 105.281C106.151 105.281 105.59 105.589 105.59 106.205V110ZM112.915 110.132C111.221 110.132 110.264 108.966 110.264 107.118C110.264 105.281 111.221 104.126 112.915 104.126C114.07 104.126 114.829 104.676 115.17 105.578L114.015 106.095C113.883 105.611 113.52 105.259 112.915 105.259C112.134 105.259 111.738 105.809 111.738 106.612V107.657C111.738 108.46 112.134 108.999 112.915 108.999C113.586 108.999 113.916 108.614 114.125 108.097L115.203 108.614C114.829 109.626 114.026 110.132 112.915 110.132ZM118.556 110.132C116.862 110.132 115.85 108.955 115.85 107.118C115.85 105.303 116.829 104.126 118.512 104.126C120.305 104.126 121.13 105.446 121.13 107.019V107.481H117.313V107.624C117.313 108.449 117.786 109.01 118.71 109.01C119.403 109.01 119.821 108.68 120.173 108.229L120.932 109.076C120.459 109.725 119.623 110.132 118.556 110.132ZM118.534 105.182C117.797 105.182 117.313 105.732 117.313 106.524V106.612H119.667V106.513C119.667 105.721 119.26 105.182 118.534 105.182ZM125.933 110V109.043H125.878C125.669 109.692 125.053 110.132 124.294 110.132C122.853 110.132 122.05 109.043 122.05 107.118C122.05 105.204 122.853 104.126 124.294 104.126C125.053 104.126 125.68 104.544 125.878 105.204H125.933V101.86H127.341V110H125.933ZM124.745 108.966C125.416 108.966 125.933 108.625 125.933 108.031V106.205C125.933 105.644 125.416 105.281 124.745 105.281C124.019 105.281 123.524 105.82 123.524 106.634V107.624C123.524 108.438 124.019 108.966 124.745 108.966ZM133.445 110.132C132.356 110.132 131.641 109.736 131.069 109.076L131.927 108.24C132.345 108.724 132.851 109.021 133.5 109.021C134.171 109.021 134.457 108.768 134.457 108.361C134.457 108.031 134.259 107.822 133.753 107.756L133.181 107.679C131.949 107.525 131.267 106.986 131.267 105.941C131.267 104.83 132.136 104.126 133.445 104.126C134.567 104.126 135.139 104.456 135.689 105.028L134.864 105.853C134.534 105.501 134.05 105.237 133.489 105.237C132.884 105.237 132.62 105.479 132.62 105.831C132.62 106.216 132.829 106.392 133.368 106.48L133.951 106.557C135.205 106.733 135.81 107.294 135.81 108.251C135.81 109.362 134.875 110.132 133.445 110.132ZM139.32 110.132C137.626 110.132 136.669 108.966 136.669 107.118C136.669 105.281 137.626 104.126 139.32 104.126C140.475 104.126 141.234 104.676 141.575 105.578L140.42 106.095C140.288 105.611 139.925 105.259 139.32 105.259C138.539 105.259 138.143 105.809 138.143 106.612V107.657C138.143 108.46 138.539 108.999 139.32 108.999C139.991 108.999 140.321 108.614 140.53 108.097L141.608 108.614C141.234 109.626 140.431 110.132 139.32 110.132ZM143.397 103.422C142.814 103.422 142.572 103.125 142.572 102.718V102.498C142.572 102.091 142.814 101.794 143.397 101.794C143.969 101.794 144.222 102.091 144.222 102.498V102.718C144.222 103.125 143.969 103.422 143.397 103.422ZM142.693 110V104.258H144.101V110H142.693ZM148.054 110.132C146.36 110.132 145.348 108.955 145.348 107.118C145.348 105.303 146.327 104.126 148.01 104.126C149.803 104.126 150.628 105.446 150.628 107.019V107.481H146.811V107.624C146.811 108.449 147.284 109.01 148.208 109.01C148.901 109.01 149.319 108.68 149.671 108.229L150.43 109.076C149.957 109.725 149.121 110.132 148.054 110.132ZM148.032 105.182C147.295 105.182 146.811 105.732 146.811 106.524V106.612H149.165V106.513C149.165 105.721 148.758 105.182 148.032 105.182ZM153.275 110H151.867V104.258H153.275V105.215H153.33C153.561 104.599 154.045 104.126 154.936 104.126C156.113 104.126 156.773 104.94 156.773 106.37V110H155.365V106.513C155.365 105.699 155.09 105.281 154.419 105.281C153.836 105.281 153.275 105.589 153.275 106.205V110ZM160.6 110.132C158.906 110.132 157.949 108.966 157.949 107.118C157.949 105.281 158.906 104.126 160.6 104.126C161.755 104.126 162.514 104.676 162.855 105.578L161.7 106.095C161.568 105.611 161.205 105.259 160.6 105.259C159.819 105.259 159.423 105.809 159.423 106.612V107.657C159.423 108.46 159.819 108.999 160.6 108.999C161.271 108.999 161.601 108.614 161.81 108.097L162.888 108.614C162.514 109.626 161.711 110.132 160.6 110.132ZM166.241 110.132C164.547 110.132 163.535 108.955 163.535 107.118C163.535 105.303 164.514 104.126 166.197 104.126C167.99 104.126 168.815 105.446 168.815 107.019V107.481H164.998V107.624C164.998 108.449 165.471 109.01 166.395 109.01C167.088 109.01 167.506 108.68 167.858 108.229L168.617 109.076C168.144 109.725 167.308 110.132 166.241 110.132ZM166.219 105.182C165.482 105.182 164.998 105.732 164.998 106.524V106.612H167.352V106.513C167.352 105.721 166.945 105.182 166.219 105.182ZM173.357 103.422C172.774 103.422 172.532 103.125 172.532 102.718V102.498C172.532 102.091 172.774 101.794 173.357 101.794C173.929 101.794 174.182 102.091 174.182 102.498V102.718C174.182 103.125 173.929 103.422 173.357 103.422ZM172.653 110V104.258H174.061V110H172.653ZM177.101 110H175.693V104.258H177.101V105.215H177.156C177.387 104.599 177.871 104.126 178.762 104.126C179.939 104.126 180.599 104.94 180.599 106.37V110H179.191V106.513C179.191 105.699 178.916 105.281 178.245 105.281C177.662 105.281 177.101 105.589 177.101 106.205V110ZM183.953 110C182.985 110 182.468 109.472 182.468 108.537V105.38H181.621V104.258H182.061C182.479 104.258 182.611 104.06 182.611 103.664V102.685H183.876V104.258H185.053V105.38H183.876V108.878H184.965V110H183.953ZM188.508 110.132C186.869 110.132 185.846 108.966 185.846 107.118C185.846 105.281 186.869 104.126 188.508 104.126C190.158 104.126 191.181 105.281 191.181 107.118C191.181 108.966 190.158 110.132 188.508 110.132ZM188.508 108.999C189.245 108.999 189.707 108.526 189.707 107.657V106.59C189.707 105.732 189.245 105.259 188.508 105.259C187.782 105.259 187.32 105.732 187.32 106.59V107.657C187.32 108.526 187.782 108.999 188.508 108.999ZM195.315 110V105.369H194.468V104.258H195.315V103.433C195.315 102.421 195.865 101.86 196.899 101.86H197.9V102.982H196.723V104.258H200.265V110H198.857V105.369H196.723V110H195.315ZM199.561 103.422C198.978 103.422 198.736 103.125 198.736 102.718V102.498C198.736 102.091 198.978 101.794 199.561 101.794C200.133 101.794 200.386 102.091 200.386 102.498V102.718C200.386 103.125 200.133 103.422 199.561 103.422ZM204.214 110.132C202.52 110.132 201.508 108.955 201.508 107.118C201.508 105.303 202.487 104.126 204.17 104.126C205.963 104.126 206.788 105.446 206.788 107.019V107.481H202.971V107.624C202.971 108.449 203.444 109.01 204.368 109.01C205.061 109.01 205.479 108.68 205.831 108.229L206.59 109.076C206.117 109.725 205.281 110.132 204.214 110.132ZM204.192 105.182C203.455 105.182 202.971 105.732 202.971 106.524V106.612H205.325V106.513C205.325 105.721 204.918 105.182 204.192 105.182ZM210.194 110H209.435C208.478 110 208.027 109.494 208.027 108.614V101.86H209.435V108.878H210.194V110ZM214.825 110V109.043H214.77C214.561 109.692 213.945 110.132 213.186 110.132C211.745 110.132 210.942 109.043 210.942 107.118C210.942 105.204 211.745 104.126 213.186 104.126C213.945 104.126 214.572 104.544 214.77 105.204H214.825V101.86H216.233V110H214.825ZM213.637 108.966C214.308 108.966 214.825 108.625 214.825 108.031V106.205C214.825 105.644 214.308 105.281 213.637 105.281C212.911 105.281 212.416 105.82 212.416 106.634V107.624C212.416 108.438 212.911 108.966 213.637 108.966ZM220.826 107.349H217.68V105.952H220.826V107.349ZM223.69 110H222.282V104.258H223.69V105.446H223.745C223.888 104.841 224.35 104.258 225.263 104.258H225.571V105.589H225.131C224.185 105.589 223.69 105.853 223.69 106.48V110ZM228.868 110.132C227.174 110.132 226.162 108.955 226.162 107.118C226.162 105.303 227.141 104.126 228.824 104.126C230.617 104.126 231.442 105.446 231.442 107.019V107.481H227.625V107.624C227.625 108.449 228.098 109.01 229.022 109.01C229.715 109.01 230.133 108.68 230.485 108.229L231.244 109.076C230.771 109.725 229.935 110.132 228.868 110.132ZM228.846 105.182C228.109 105.182 227.625 105.732 227.625 106.524V106.612H229.979V106.513C229.979 105.721 229.572 105.182 228.846 105.182ZM234.1 110.132C232.934 110.132 232.274 109.461 232.274 108.438C232.274 107.261 233.165 106.678 234.727 106.678H235.706V106.26C235.706 105.622 235.387 105.248 234.639 105.248C233.979 105.248 233.605 105.578 233.33 105.974L232.494 105.226C232.912 104.566 233.583 104.126 234.738 104.126C236.289 104.126 237.114 104.863 237.114 106.172V108.878H237.686V110H236.905C236.3 110 235.926 109.604 235.838 109.01H235.772C235.585 109.747 234.958 110.132 234.1 110.132ZM234.573 109.109C235.2 109.109 235.706 108.823 235.706 108.284V107.525H234.804C234.067 107.525 233.704 107.778 233.704 108.229V108.416C233.704 108.878 234.023 109.109 234.573 109.109ZM242.389 110V109.043H242.334C242.125 109.692 241.509 110.132 240.75 110.132C239.309 110.132 238.506 109.043 238.506 107.118C238.506 105.204 239.309 104.126 240.75 104.126C241.509 104.126 242.136 104.544 242.334 105.204H242.389V101.86H243.797V110H242.389ZM241.201 108.966C241.872 108.966 242.389 108.625 242.389 108.031V106.205C242.389 105.644 241.872 105.281 241.201 105.281C240.475 105.281 239.98 105.82 239.98 106.634V107.624C239.98 108.438 240.475 108.966 241.201 108.966ZM247.94 107.294L248.941 104.258H250.261L247.951 111.023C247.665 111.848 247.258 112.2 246.312 112.2H245.465V111.078H246.499L246.763 110.275L244.706 104.258H246.103L247.104 107.294L247.478 108.746H247.544L247.94 107.294ZM40.2783 124.132C39.1893 124.132 38.4743 123.736 37.9023 123.076L38.7603 122.24C39.1783 122.724 39.6843 123.021 40.3333 123.021C41.0043 123.021 41.2903 122.768 41.2903 122.361C41.2903 122.031 41.0923 121.822 40.5863 121.756L40.0143 121.679C38.7823 121.525 38.1003 120.986 38.1003 119.941C38.1003 118.83 38.9693 118.126 40.2783 118.126C41.4003 118.126 41.9723 118.456 42.5223 119.028L41.6973 119.853C41.3673 119.501 40.8833 119.237 40.3223 119.237C39.7173 119.237 39.4533 119.479 39.4533 119.831C39.4533 120.216 39.6623 120.392 40.2013 120.48L40.7843 120.557C42.0383 120.733 42.6433 121.294 42.6433 122.251C42.6433 123.362 41.7083 124.132 40.2783 124.132ZM46.1636 124.132C44.5246 124.132 43.5016 122.966 43.5016 121.118C43.5016 119.281 44.5246 118.126 46.1636 118.126C47.8136 118.126 48.8366 119.281 48.8366 121.118C48.8366 122.966 47.8136 124.132 46.1636 124.132ZM46.1636 122.999C46.9006 122.999 47.3626 122.526 47.3626 121.657V120.59C47.3626 119.732 46.9006 119.259 46.1636 119.259C45.4376 119.259 44.9756 119.732 44.9756 120.59V121.657C44.9756 122.526 45.4376 122.999 46.1636 122.999ZM52.2518 124H51.4928C50.5358 124 50.0848 123.494 50.0848 122.614V115.86H51.4928V122.878H52.2518V124ZM56.7502 124V123.043H56.6952C56.4972 123.615 56.0352 124.132 55.0892 124.132C53.9122 124.132 53.2522 123.318 53.2522 121.888V118.258H54.6602V121.745C54.6602 122.537 54.9572 122.966 55.6282 122.966C56.1892 122.966 56.7502 122.669 56.7502 122.053V118.258H58.1582V124H56.7502ZM61.578 124C60.61 124 60.093 123.472 60.093 122.537V119.38H59.246V118.258H59.686C60.104 118.258 60.236 118.06 60.236 117.664V116.685H61.501V118.258H62.678V119.38H61.501V122.878H62.59V124H61.578ZM64.6033 117.422C64.0203 117.422 63.7783 117.125 63.7783 116.718V116.498C63.7783 116.091 64.0203 115.794 64.6033 115.794C65.1753 115.794 65.4283 116.091 65.4283 116.498V116.718C65.4283 117.125 65.1753 117.422 64.6033 117.422ZM63.8993 124V118.258H65.3073V124H63.8993ZM69.2163 124.132C67.5773 124.132 66.5543 122.966 66.5543 121.118C66.5543 119.281 67.5773 118.126 69.2163 118.126C70.8663 118.126 71.8893 119.281 71.8893 121.118C71.8893 122.966 70.8663 124.132 69.2163 124.132ZM69.2163 122.999C69.9533 122.999 70.4153 122.526 70.4153 121.657V120.59C70.4153 119.732 69.9533 119.259 69.2163 119.259C68.4903 119.259 68.0283 119.732 68.0283 120.59V121.657C68.0283 122.526 68.4903 122.999 69.2163 122.999ZM74.5456 124H73.1376V118.258H74.5456V119.215H74.6006C74.8316 118.599 75.3156 118.126 76.2066 118.126C77.3836 118.126 78.0436 118.94 78.0436 120.37V124H76.6356V120.513C76.6356 119.699 76.3606 119.281 75.6896 119.281C75.1066 119.281 74.5456 119.589 74.5456 120.205V124ZM81.4854 124.132C80.3964 124.132 79.6814 123.736 79.1094 123.076L79.9674 122.24C80.3854 122.724 80.8914 123.021 81.5404 123.021C82.2114 123.021 82.4974 122.768 82.4974 122.361C82.4974 122.031 82.2994 121.822 81.7934 121.756L81.2214 121.679C79.9894 121.525 79.3074 120.986 79.3074 119.941C79.3074 118.83 80.1764 118.126 81.4854 118.126C82.6074 118.126 83.1794 118.456 83.7294 119.028L82.9044 119.853C82.5744 119.501 82.0904 119.237 81.5294 119.237C80.9244 119.237 80.6604 119.479 80.6604 119.831C80.6604 120.216 80.8694 120.392 81.4084 120.48L81.9914 120.557C83.2454 120.733 83.8504 121.294 83.8504 122.251C83.8504 123.362 82.9154 124.132 81.4854 124.132ZM85.8434 124.121C85.2494 124.121 84.9634 123.78 84.9634 123.318V123.12C84.9634 122.647 85.2494 122.306 85.8434 122.306C86.4484 122.306 86.7234 122.647 86.7234 123.12V123.318C86.7234 123.78 86.4484 124.121 85.8434 124.121Z" fill="white"/>
<path d="M275.045 21.0334C277.246 21.0334 279.031 19.2781 279.031 17.1129C279.031 14.9477 277.246 13.1924 275.045 13.1924C272.844 13.1924 271.059 14.9477 271.059 17.1129C271.059 19.2781 272.844 21.0334 275.045 21.0334Z" stroke="white" stroke-width="2" stroke-linecap="round" stroke-linejoin="round"/>
<path d="M264.458 32.4272C264.458 27.2816 267.572 24.0962 271.308 24.0962" stroke="white" stroke-width="2" stroke-linecap="round" stroke-linejoin="round"/>
<path d="M280.774 27.0366C281.197 26.2979 281.86 25.7197 282.655 25.394C283.451 25.0683 284.335 25.0139 285.166 25.2393C285.996 25.4648 286.727 25.9571 287.24 26.6381C287.754 27.319 288.021 28.1493 287.999 28.9968M283.639 27.0366H280.774V24.2188" stroke="white" stroke-linecap="round" stroke-linejoin="round"/>
<path d="M286.63 32.1822C286.207 32.9208 285.545 33.499 284.749 33.8247C283.953 34.1504 283.07 34.2049 282.239 33.9794C281.408 33.754 280.678 33.2616 280.164 32.5807C279.651 31.8997 279.384 31.0694 279.406 30.2219M283.765 32.1822H286.63V35" stroke="white" stroke-linecap="round" stroke-linejoin="round"/>
<line x1="39" y1="28" x2="129" y2="28" stroke="url(#paint2_linear_2_247)" stroke-width="2" stroke-linecap="round"/>
<defs>
<linearGradient id="paint0_linear_2_247" x1="292.854" y1="172" x2="92.4174" y2="-40.239" gradientUnits="userSpaceOnUse">
<stop stop-color="#67B8FF"/>
<stop offset="0.4375" stop-color="#0558FF"/>
<stop offset="0.961538" stop-color="#082D76"/>
</linearGradient>
<linearGradient id="paint1_linear_2_247" x1="292.854" y1="172" x2="92.4174" y2="-40.239" gradientUnits="userSpaceOnUse">
<stop stop-color="#67B8FF"/>
<stop offset="0.4375" stop-color="#0558FF"/>
<stop offset="0.961538" stop-color="#082D76"/>
</linearGradient>
<linearGradient id="paint2_linear_2_247" x1="110.413" y1="29.5" x2="33.2516" y2="29.5" gradientUnits="userSpaceOnUse">
<stop stop-color="white" stop-opacity="0"/>
<stop offset="1" stop-color="white"/>
</linearGradient>
</defs>
</svg>
